# xmcd CD database file
#
# Track frame offsets:
#	150
#	34160
#	65051
#	90822
#	117320
#	146602
#	173710
#	195723
#	213104
#	240776
#
# Disc length: 3551 seconds
#
# Revision: 0
# Processed by: cddbd v1.4PL0 Copyright (c) Steve Scherf et al.
# Submitted via: CDex 1.50Beta7
#
DISCID=7e0ddd0a
DTITLE=Stanley Clarke - Jazz Straight Up
DYEAR=1900
DGENRE=Jazz
TTITLE0=Lover Man
TTITLE1=Mack The Knife
TTITLE2=Salt Peanuts
TTITLE3=I Mean You
TTITLE4=Now's The Time
TTITLE5=Take Five
TTITLE6=Jeru
TTITLE7=Manteca
TTITLE8=Oleo
TTITLE9=Perdido
EXTD=
EXTT0=
EXTT1=
EXTT2=
EXTT3=
EXTT4=
EXTT5=
EXTT6=
EXTT7=
EXTT8=
EXTT9=
PLAYORDER=
